<svg xml:space="preserve" fill-rule="evenodd" stroke-linecap="round" stroke-linejoin="round" stroke-miterlimit="1.5" clip-rule="evenodd" viewBox="0 0 219 65">
  <path fill="none" stroke="#072893" stroke-width="2" d="m217.224 14.447-45.639 10.717 14.25 4.321 31.389-15.038Zm-31.389 15.038 2.538 10.225 7.905-6.969-4.781-1.492 14.903 4.632 10.824-21.434-25.727 16.802-3.124 8.461"/>
  <path fill="#072893" fill-rule="nonzero" d="M9.153 45.848c.018-.714.009-3.471-.028-8.272-.018-3.509.037-6.189.166-8.04 2.234 0 4.006-.01 5.317-.029.462 0 .803-.145 1.025-.434.221-.289.327-.626.318-1.012-.009-.386-.134-.723-.374-1.012-.24-.289-.581-.434-1.024-.434-1.588.019-3.794.019-6.619 0-2.824-.019-5.03 0-6.618.058-.443.019-.775.183-.997.491-.222.309-.328.651-.318 1.027.009.376.133.704.373.983.24.28.591.41 1.053.391 1.384-.058 3.083-.077 5.095-.058-.129 1.909-.185 4.608-.166 8.098.037 4.782.046 7.51.028 8.185 0 .463.138.819.415 1.07.277.251.6.381.969.39.369.01.692-.101.969-.332.277-.232.416-.588.416-1.07Zm8.027 1.446c.37 0 .693-.13.97-.391.276-.26.415-.612.415-1.055l-.028-4.541-.055-3.615c0-.309.124-.627.374-.955.249-.327.54-.607.872-.838.591-.444 1.662-.666 3.212-.666.425 0 .748-.13.969-.39.222-.26.333-.583.333-.969 0-.598-.185-1.012-.554-1.243-.369-.232-.895-.348-1.578-.348-.905 0-1.736.241-2.493.724-.554.327-.932.723-1.135 1.185v-.867c0-.463-.143-.825-.429-1.085-.287-.26-.623-.39-1.011-.39-.369 0-.683.125-.942.376-.258.25-.387.597-.387 1.041v1.706c0 1.986.009 3.644.027 4.975l.056 5.9c0 .443.138.795.415 1.055.277.261.6.391.969.391Zm8.557-1.389c0 .482.139.839.416 1.071.276.231.6.342.969.332.369-.01.692-.14.969-.39.277-.251.415-.608.415-1.07-.037-1.446-.027-3.654.028-6.623.037-2.97.055-4.917.055-5.843 0-.482-.138-.843-.415-1.084-.277-.241-.6-.362-.969-.362s-.692.121-.969.362-.416.602-.416 1.084c0 .926-.018 2.883-.055 5.872-.056 2.988-.065 5.205-.028 6.651Zm2.576-18.972c-.351-.424-.739-.612-1.164-.564-.424.048-.793.236-1.107.564-.314.328-.499.713-.554 1.157-.055.443.111.868.498 1.272.388.405.794.584 1.219.535.424-.048.789-.231 1.094-.549.304-.318.48-.699.526-1.142.046-.444-.125-.868-.512-1.273Zm6.646 24.728c0 .482-.139.839-.416 1.07-.277.231-.6.342-.969.332-.369-.009-.692-.139-.969-.39s-.416-.607-.416-1.07c.074-3.798.111-9.862.111-18.192 0-.404.134-.747.402-1.026.267-.28.595-.42.983-.42.277 0 .531.13.761.391.231.26.402.583.513.969l.387-.261c1.108-.694 2.206-1.07 3.296-1.128 1.089-.057 2.067.193 2.935.752.812.482 1.5 1.157 2.063 2.025.563.868.974 1.812 1.232 2.834.203.733.314 1.514.333 2.343.018.829-.083 1.6-.305 2.314-.222.713-.545 1.417-.969 2.111-.425.694-1.02 1.301-1.786 1.822-.767.52-1.648.877-2.645 1.07-1.717.328-3.203.019-4.458-.926-.019 1.794-.047 3.587-.083 5.38Zm4.043-7.288c1.403-.27 2.386-.969 2.949-2.097.563-1.128.651-2.454.263-3.977-.388-1.504-1.062-2.535-2.022-3.094-.978-.598-2.113-.482-3.406.347-.591.366-.932.607-1.024.723l-.139.144c-.037.058-.101.174-.194.347l-.36.521v4.743c.093.096.166.202.222.318.517.848 1.061 1.437 1.634 1.764.572.328 1.264.415 2.077.261Zm13.039 1.475c.019-.714.01-3.471-.027-8.272-.019-3.509.037-6.189.166-8.04 2.234 0 4.006-.01 5.317-.029.461 0 .803-.145 1.024-.434.222-.289.328-.626.319-1.012-.009-.386-.134-.723-.374-1.012-.24-.289-.582-.434-1.025-.434-1.587.019-3.793.019-6.618 0s-5.031 0-6.618.058c-.443.019-.776.183-.997.491-.222.309-.328.651-.319 1.027.009.376.134.704.374.983.24.28.591.41 1.052.391 1.385-.058 3.083-.077 5.096-.058-.13 1.909-.185 4.608-.166 8.098.036 4.782.046 7.51.027 8.185 0 .463.139.819.416 1.07.277.251.6.381.969.39.369.01.692-.101.969-.332.277-.232.415-.588.415-1.07Zm8.028 1.446c.369 0 .692-.13.969-.391.277-.26.416-.612.416-1.055l-.028-4.541-.055-3.615c0-.309.124-.627.373-.955.25-.327.54-.607.873-.838.59-.444 1.661-.666 3.212-.666.425 0 .748-.13.969-.39.222-.26.332-.583.332-.969 0-.598-.184-1.012-.553-1.243-.37-.232-.896-.348-1.579-.348-.904 0-1.735.241-2.492.724-.554.327-.932.723-1.135 1.185v-.867c0-.463-.144-.825-.43-1.085-.286-.26-.623-.39-1.01-.39-.37 0-.684.125-.942.376-.258.25-.388.597-.388 1.041v1.706c0 1.986.01 3.644.028 4.975l.055 5.9c0 .443.139.795.416 1.055.277.261.6.391.969.391Zm15.508-.203c-2.437.617-4.385.106-5.843-1.533-1.164-1.253-1.884-2.863-2.16-4.829-.204-1.543-.028-3.008.526-4.397.664-1.773 1.717-3.084 3.157-3.933.295-.173.664-.299 1.107-.376.019 0 .148-.009.388-.029.092-.019.166-.038.221-.058.277-.057.554-.028.831.087.148 0 .365.01.651.029.286.019.568.043.845.072.277.029.489.063.637.102l.526.202c.221.077.433.174.637.289.203.116.424.251.664.405.609.424 1.117.95 1.523 1.576.406.627.729 1.292.969 1.996s.388 1.383.444 2.039c.055.656.027 1.215-.084 1.677-.166 1.042-.461 2.006-.886 2.893-.424.906-1.01 1.706-1.758 2.4s-1.546 1.157-2.395 1.388Zm-.859-3.008c.702-.096 1.292-.39 1.772-.882.48-.491.84-1.089 1.08-1.793.24-.704.351-1.436.333-2.198-.019-.761-.167-1.47-.443-2.126-.277-.655-.693-1.166-1.247-1.532-.203-.155-.369-.266-.498-.333s-.277-.13-.443-.188c-.111-.019-.3-.039-.568-.058-.267-.019-.54-.038-.817-.058-.277-.019-.47-.029-.581-.029-.056 0-.12-.009-.194-.029-.203.02-.314.029-.332.029l-.194.058c-.536.309-.993.747-1.371 1.316-.378.569-.651 1.205-.817 1.909-.166.704-.184 1.412-.055 2.126.203 1.311.655 2.304 1.357 2.979.757.732 1.763 1.002 3.018.809Zm13.375 3.211c.406-.039.776-.232 1.108-.579.166-.154.332-.356.498-.607.222-.347.462-.791.72-1.33l.776-1.765c.258-.655.775-2.024 1.551-4.107.756-2.082 1.43-3.682 2.021-4.8.222-.425.263-.81.125-1.157-.139-.347-.365-.612-.679-.796-.314-.183-.651-.241-1.011-.173-.36.067-.65.313-.872.737-.609 1.157-1.338 2.892-2.188 5.206-.867 2.314-1.366 3.625-1.495 3.933l-.055.116c-.019.077-.079.236-.18.477-.102.241-.18.42-.236.535l-.11-.26c-.111-.27-.291-.752-.54-1.446-.25-.694-.54-1.48-.873-2.357-.332-.877-.655-1.75-.969-2.617-.314-.868-.586-1.615-.817-2.242-.231-.626-.374-1.027-.429-1.2-.185-.444-.448-.723-.789-.839-.342-.115-.679-.106-1.011.029-.332.135-.586.366-.762.694-.175.328-.189.714-.041 1.157.185.482.775 2.063 1.772 4.743.979 2.7 1.616 4.425 1.911 5.177l.554 1.302c.166.404.304.723.415.954l.222.405c.055.096.12.183.194.26.073.097.156.183.249.26.277.213.591.309.941.29Zm15.342.144c-1.367-.096-2.557-.385-3.573-.867-1.015-.482-1.79-1.09-2.326-1.822-.535-.733-.923-1.408-1.163-2.025s-.388-1.229-.443-1.836c-.055-.608-.028-1.393.083-2.357.148-.887.448-1.736.9-2.546.452-.809 1.034-1.518 1.745-2.125.711-.608 1.532-1.061 2.464-1.36.933-.298 1.934-.38 3.005-.245s1.985.438 2.741.911c.757.472 1.403 1.074 1.939 1.807.461.617.748 1.08.858 1.388.093.309.185.598.277.868.074.289.162.617.263.983.102.367.162.704.18 1.013.037.79-.249 1.369-.858 1.735-.24.096-.499.145-.776.145l-4.735.086c-3.323.02-4.984.058-4.984.116h-.083c.498 2.005 2.049 3.104 4.652 3.297.72.039 1.32 0 1.8-.116.535-.154.923-.294 1.163-.419s.535-.294.886-.506c.425-.154.789-.15 1.094.014.304.164.517.42.637.767.12.347.124.703.014 1.07-.111.366-.36.665-.748.896-.296.174-.6.318-.914.434-.443.193-.988.362-1.634.506-.646.145-1.467.208-2.464.188Zm-4.431-8.965c1.071-.058 3.849-.116 8.335-.174-.166-.578-.434-1.128-.803-1.648-.738-.887-1.652-1.398-2.741-1.533-1.145-.154-2.151.101-3.019.766-.867.665-1.458 1.528-1.772 2.589Z"/>
  <path fill="none" stroke="#f90" stroke-dasharray="2.5 4 0 0 0 0" stroke-linejoin="miter" stroke-miterlimit="10" stroke-width="2.5" d="M39.104 52.059H123.2c6.297 0 12.546-6.409 16.571-9.071 2.85-1.885 5.309-4.54 7.58-6.902 2.184-2.273 4.699-4.904 6.043-7.272.812-1.43 1.617-3.049 2.218-5.012.135-.439.259-.896.371-1.372.336-1.43.266-3.413 0-4.625-.221-1.007-.885-1.902-1.595-2.649-.711-.749-1.676-1.425-2.673-1.847-.997-.421-2.206-.629-3.309-.682-1.104-.053-2.367.118-3.312.363-.839.217-1.596.685-2.354 1.106-.901.5-3.051 1.893-3.051 1.893s-3.083-1.88-4.104-2.399c-.638-.325-1.318-.599-2.023-.716-.991-.166-2.767-.4-3.922-.278-1.053.111-2.185.581-3.011 1.009-.737.382-1.443.896-1.944 1.559-.531.7-1.024 1.692-1.238 2.641-.247 1.099-.386 2.692-.247 3.957.138 1.256.579 2.474 1.081 3.634.508 1.175 1.157 2.385 1.971 3.418 1.403 1.781 4.214 4.927 6.45 7.272 2.253 2.362 3.983 4.096 7.069 6.902 3.004 2.731 8.645 4.133 13.102 3.421 7.202-1.15 22.473-7.266 30.109-10.323"/>
</svg>
